<?xml version="1.0" encoding="utf-8"?>
<!-- Generator: Adobe Illustrator 18.1.1, SVG Export Plug-In . SVG Version: 6.00 Build 0)  -->
<svg version="1.1" id="Layer_1" xmlns="http://www.w3.org/2000/svg" xmlns:xlink="http://www.w3.org/1999/xlink" x="0px" y="0px"
	 width="165.3px" height="42px" viewBox="0 0 165.3 42" enable-background="new 0 0 165.3 42" xml:space="preserve">
<g>
	<g>
		<path fill="#848484" d="M20.8,5.4c-0.9-0.9-2.1-1.6-3.6-2.2c-1.5-0.6-3.4-0.9-5.7-0.9H2.9c-0.2,0-0.4,0.1-0.4,0.3
			c0,0.2,0,0.4,0.2,0.5C3,3.4,3.2,3.6,3.4,3.9c0.2,0.3,0.3,0.6,0.3,1v27.3c0,0.4-0.1,0.7-0.3,1c-0.2,0.3-0.5,0.5-0.8,0.7
			c-0.2,0.1-0.2,0.3-0.2,0.5c0.1,0.2,0.2,0.3,0.4,0.3h6.7c0,0,0,0,0,0c0.2,0,0.4-0.2,0.4-0.4c0-0.2-0.1-0.4-0.3-0.4
			c-0.3-0.2-0.5-0.4-0.7-0.6c-0.2-0.2-0.3-0.6-0.3-1V20.5c0.7,0.3,1.5,0.4,2.2,0.5c0.9,0.1,1.8,0.1,2.7,0c0.8-0.1,1.6-0.2,2.3-0.4
			c0.7-0.2,1.2-0.4,1.6-0.5c0.4-0.2,0.9-0.5,1.5-0.9c0.6-0.4,1.3-1,1.9-1.7c0.6-0.7,1.1-1.6,1.6-2.5c0.5-1,0.7-2.2,0.7-3.5
			c0-0.9-0.2-1.9-0.5-3C22.3,7.3,21.7,6.3,20.8,5.4z M17,15.1c-0.5,0.9-1.2,1.6-1.9,2.1c-0.8,0.5-1.6,0.8-2.4,0.9
			c-2,0.3-3.2,0.3-3.9,0V5.2h0.3c0.2,0,0.6,0,1,0c0.4,0,0.8,0,1.3,0c2.1,0,3.8,0.6,4.8,1.7c1.1,1.1,1.6,2.7,1.6,4.7
			C17.8,13,17.6,14.2,17,15.1z M36.8,12.4c-0.3-0.1-0.5-0.2-0.7-0.3c-0.1-0.1-0.4-0.1-1.2-0.1c-0.5,0-1,0.1-1.5,0.4
			c-0.5,0.3-1,0.6-1.5,1.1c-0.5,0.4-0.9,0.9-1.3,1.4c-0.1,0.1-0.1,0.2-0.2,0.2v-2.7c0-0.1-0.1-0.3-0.2-0.3c-0.1-0.1-0.2-0.1-0.4-0.1
			l-5.5,1.1c-0.2,0-0.3,0.2-0.3,0.4c0,0.2,0.1,0.4,0.3,0.4c0.4,0.1,0.7,0.3,1,0.4c0.3,0.2,0.3,0.7,0.3,1v17.1c0,0.5-0.1,0.7-0.2,0.8
			c-0.2,0.2-0.4,0.4-0.8,0.6c-0.2,0.1-0.2,0.3-0.2,0.5c0.1,0.2,0.2,0.3,0.4,0.3h6.3c0,0,0,0,0,0c0.2,0,0.4-0.2,0.4-0.4
			c0-0.2-0.1-0.3-0.3-0.4c-0.3-0.2-0.5-0.4-0.7-0.6c-0.1-0.1-0.2-0.4-0.2-0.8V18.3c0.4-0.5,0.9-1,1.5-1.5c0.6-0.5,1.2-0.7,2-0.7
			c0.5,0,1,0.1,1.3,0.3c0.4,0.2,0.7,0.5,1,0.9c0.1,0.1,0.3,0.2,0.5,0.1c0.2-0.1,0.3-0.2,0.3-0.4v-4.3C37,12.6,36.9,12.4,36.8,12.4z
			 M55.3,15.7c-0.8-1.1-1.9-2-3.2-2.7c-1.3-0.7-2.8-1-4.6-1c-1.6,0-3.1,0.3-4.4,1c-1.3,0.7-2.4,1.6-3.3,2.7c-0.9,1.1-1.6,2.3-2,3.7
			c-0.5,1.4-0.7,2.8-0.7,4.2c0,1.3,0.2,2.6,0.6,3.9c0.4,1.3,1,2.6,1.8,3.7c0.8,1.1,1.9,2.1,3.2,2.8c1.3,0.7,2.9,1.1,4.8,1.1
			c1.6,0,3-0.3,4.3-1c1.3-0.7,2.4-1.6,3.3-2.6c0.9-1.1,1.6-2.3,2.1-3.7c0.5-1.4,0.7-2.8,0.7-4.2c0-1.4-0.2-2.8-0.6-4.2
			C56.7,18,56.1,16.8,55.3,15.7z M52.5,26.8c-0.2,1.1-0.5,2.1-0.9,2.9c-0.4,0.8-1,1.5-1.6,2c-0.6,0.5-1.4,0.7-2.3,0.8l-0.2,0
			c-0.8,0-1.5-0.2-2.1-0.6c-0.7-0.4-1.3-1-1.7-1.8c-0.5-0.8-0.9-1.7-1.2-2.8c-0.3-1.1-0.5-2.2-0.5-3.5c0-1.2,0.1-2.4,0.2-3.5
			c0.2-1.1,0.5-2.1,0.9-2.9c0.4-0.8,0.9-1.5,1.6-2c0.6-0.5,1.4-0.8,2.3-0.8l0.2,0c0.8,0,1.6,0.2,2.2,0.6c0.7,0.5,1.3,1.1,1.8,1.9
			c0.5,0.8,0.9,1.8,1.1,2.8c0.2,1.1,0.4,2.2,0.5,3.4C52.8,24.5,52.7,25.7,52.5,26.8z M112.9,32.8c-0.6-0.1-0.9-0.3-1.1-0.7
			c-0.2-0.4-0.3-0.9-0.3-1.5V12.4c0-0.1-0.1-0.3-0.2-0.3c-0.1-0.1-0.2-0.1-0.4-0.1l-5.4,1.1c-0.2,0-0.3,0.2-0.3,0.4
			c0,0.2,0.1,0.4,0.3,0.4c0.3,0.1,0.7,0.3,1,0.4c0.3,0.2,0.3,0.7,0.3,1v14c-0.6,0.6-1.2,1.1-1.9,1.5c-0.6,0.4-1.5,0.6-2.5,0.6
			c-1.2,0-2.1-0.4-3-1.4c-0.8-0.9-1.2-2.3-1.2-4.2V12.4c0-0.1-0.1-0.3-0.2-0.3C98,12,97.8,11.9,97.7,12l-5.4,1.1
			c-0.2,0-0.3,0.2-0.3,0.4c0,0.2,0.1,0.4,0.3,0.4l0.5,0.2c0.1,0,0.2,0.1,0.4,0.2c0.1,0.1,0.2,0.2,0.2,0.3c0,0.1,0.1,0.3,0.1,0.7V26
			c0,1.8,0.2,3.3,0.7,4.4c0.5,1.2,1.1,2.1,1.8,2.8c0.7,0.7,1.5,1.2,2.4,1.5c0.8,0.3,1.6,0.4,2.3,0.4c1.7,0,3.1-0.4,4.2-1.1
			c0.7-0.5,1.4-1,2-1.6c0,0.1,0,0.3,0.1,0.4c0.1,0.4,0.2,0.7,0.3,1c0.2,0.3,0.4,0.5,0.6,0.7c0.2,0.2,0.5,0.4,0.8,0.5
			c0.1,0,0.1,0.1,0.2,0.1c0,0,0.1,0,0.1,0l3.9-1.5c0.2-0.1,0.3-0.3,0.3-0.5C113.2,32.9,113.1,32.8,112.9,32.8z M130.9,14.3
			c-0.9-0.8-1.8-1.4-2.9-1.8c-1-0.4-2.1-0.6-3.1-0.6c-1.8,0-3.4,0.4-4.7,1.1c-1.4,0.7-2.5,1.7-3.4,2.8c-0.9,1.1-1.6,2.4-2,3.8
			c-0.5,1.4-0.7,2.7-0.7,4c0,1.4,0.2,2.8,0.7,4.2c0.5,1.4,1.2,2.6,2.1,3.7c0.9,1.1,2.1,2,3.4,2.6c1.3,0.7,2.8,1,4.5,1
			c1.2,0,2.4-0.2,3.5-0.7c1.1-0.4,2-1,2.8-1.8c0.8-0.7,1.4-1.6,1.9-2.5c0.5-0.9,0.7-1.9,0.7-3c0-0.2-0.1-0.4-0.3-0.4
			c-0.2,0-0.4,0.1-0.5,0.3c-0.2,0.5-0.5,1-1,1.6c-0.5,0.5-1,1-1.6,1.5c-0.6,0.4-1.3,0.8-2,1.1c-0.7,0.3-1.4,0.4-2.2,0.4
			c-1.1,0-2.1-0.2-3-0.7c-0.8-0.4-1.5-1-2.1-1.8c-0.6-0.8-1-1.6-1.3-2.6c-0.3-1-0.4-2.1-0.4-3.2v-0.9h14.2c0.2,0,0.4-0.2,0.4-0.4
			c0-1.7-0.3-3.3-0.8-4.5C132.5,16.1,131.8,15.1,130.9,14.3z M119.5,19.8c0.1-0.6,0.2-1.2,0.4-1.7c0.3-0.7,0.6-1.3,1-1.9
			c0.4-0.5,0.9-1,1.5-1.3c1-0.5,2.4-0.6,3.6-0.1c0.5,0.2,1,0.5,1.4,1c0.4,0.4,0.7,1,1,1.8c0.2,0.6,0.3,1.4,0.4,2.3H119.5z
			 M147.9,23.5c-0.6-0.6-1.3-1.1-2-1.6c-0.7-0.4-1.4-0.9-2.2-1.3c-1.2-0.7-2.1-1.3-2.8-1.9c-0.6-0.5-0.9-1.1-0.9-2
			c0-0.2,0.1-0.5,0.2-0.8c0.1-0.3,0.3-0.5,0.5-0.8c0.2-0.2,0.6-0.4,0.9-0.6c0.4-0.1,0.8-0.2,1.3-0.2c0.6,0,1.1,0.1,1.6,0.4
			c0.5,0.3,0.9,0.7,1.3,1.1c0.4,0.5,0.7,1,1,1.6c0.3,0.6,0.5,1.2,0.7,1.8c0.1,0.2,0.3,0.3,0.5,0.3c0.2,0,0.4-0.2,0.4-0.4v-5.5
			c0-0.2-0.1-0.3-0.2-0.4c-1.1-0.6-2.1-0.9-2.9-1.1c-0.9-0.2-1.6-0.3-2.2-0.3c-1.3,0-2.4,0.2-3.3,0.6c-0.9,0.4-1.6,0.9-2.2,1.5
			c-0.6,0.6-1,1.3-1.2,2c-0.2,0.7-0.4,1.4-0.4,2c0,0.7,0.1,1.3,0.2,1.9c0.2,0.6,0.4,1.2,0.8,1.7c0.4,0.5,0.9,1,1.5,1.5
			c0.6,0.5,1.4,1,2.3,1.5l2.1,1.2c0.6,0.3,1.1,0.7,1.4,1c0.4,0.3,0.6,0.6,0.8,1c0.2,0.3,0.2,0.8,0.2,1.2c0,0.2-0.1,0.5-0.2,0.9
			c-0.1,0.4-0.3,0.7-0.6,1.1c-0.3,0.4-0.7,0.7-1.1,0.9c-0.5,0.2-1.1,0.4-1.8,0.4c-0.7,0-1.3-0.2-1.8-0.5c-0.6-0.3-1.1-0.8-1.5-1.3
			c-0.5-0.6-0.9-1.2-1.2-1.9c-0.3-0.7-0.6-1.5-0.8-2.2c0-0.2-0.2-0.4-0.5-0.3c-0.2,0-0.4,0.2-0.4,0.4v6c0,0.2,0.1,0.3,0.2,0.4
			c0.8,0.5,1.7,1,2.7,1.5c1,0.5,2.2,0.8,3.6,0.8c0.9,0,1.8-0.1,2.7-0.4c0.9-0.3,1.8-0.7,2.6-1.3c0.8-0.6,1.4-1.3,1.9-2.1
			c0.5-0.9,0.8-1.9,0.8-3c0-1-0.2-1.9-0.6-2.7C149,24.7,148.5,24.1,147.9,23.5z M163.2,31.1c-0.2-0.1-0.3,0-0.5,0.1
			c-0.1,0.1-0.3,0.3-0.4,0.4c-0.1,0.1-0.3,0.2-0.4,0.3c-0.2,0.1-0.4,0.2-0.7,0.2c-0.5,0.1-1.2,0.2-2.2,0c-0.4-0.1-0.8-0.3-1.1-0.5
			c-0.4-0.3-0.7-0.7-1-1.3c-0.3-0.6-0.4-1.4-0.4-2.4V15.3h5.9c0.2,0,0.4-0.2,0.4-0.4v-1.9c0-0.2-0.2-0.4-0.4-0.4h-5.8V8.7
			c0-0.2-0.1-0.3-0.3-0.4c-0.2-0.1-0.3,0-0.5,0.1l-5.9,6.2c-0.1,0.1-0.2,0.3-0.1,0.5c0.1,0.2,0.2,0.3,0.4,0.3h1.5V28
			c0,2.3,0.6,4.1,1.9,5.3c1.3,1.2,2.9,1.8,4.8,1.8c0.7,0,1.4-0.1,2-0.4c0.6-0.2,1.1-0.5,1.5-0.9c0.4-0.3,0.8-0.7,1.1-1.1
			c0.3-0.4,0.4-0.8,0.4-1.2C163.5,31.3,163.4,31.2,163.2,31.1z M91.4,38.1c0,0-0.6,0.1-1.4,0.1c-1.9,0-5.3-0.7-6.7-5.4
			c0-0.1-0.1-0.3-0.1-0.4c1.1-0.7,1.8-1.3,2.8-2.4c1.2-1.4,2.3-3,3.1-4.9c0.8-1.9,1.2-4,1.3-6.4c0.1-2.7-0.4-5.1-1.3-7.1
			c-0.9-2-2.1-3.8-3.5-5.2c-1.4-1.4-3.1-2.5-4.9-3.2C78.8,2.4,77,2,75.3,2c-2.5-0.1-4.7,0.4-6.7,1.3c-1.9,0.9-3.6,2.2-5,3.8
			c-1.4,1.5-2.4,3.3-3.1,5.3c-0.7,1.9-1.1,3.9-1.1,5.8c-0.1,2.3,0.3,4.5,1,6.4c0.7,2,1.7,3.7,3,5.2c1.3,1.5,2.8,2.7,4.5,3.6
			c1.7,0.9,3.6,1.5,5.6,1.7l3.6-0.2c0.7-0.1,1.5-0.3,2.3-0.5c0.1,0.3,0.2,0.6,0.3,0.9c0.8,3.1,3.1,4.8,6.6,4.8c2.8,0,5.3-1,5.4-1
			c0.2-0.1,0.3-0.3,0.3-0.5C91.8,38.1,91.6,38,91.4,38.1z M81.8,29c-0.1,0.1-0.2,0.2-0.3,0.4c-1.3-1.3-3.2-2.6-5.6-2.6
			c-1.1,0-2.3,0.1-3.5,0.4c-0.2,0.1-0.4,0.3-0.3,0.5c0,0.2,0.2,0.4,0.4,0.4c0,0,0,0,0.2,0c0.8,0,3.4,0.8,5.4,3.5
			c-2,0.7-4.4,0.7-6.7-0.3c-1.2-0.6-2.3-1.4-3.3-2.6c-1-1.2-1.8-2.6-2.4-4.4c-0.6-1.8-0.9-3.9-0.9-6.4c0-2.1,0.3-3.9,0.8-5.5
			c0.5-1.6,1.2-3,2.2-4.1c0.9-1.1,2-2,3.2-2.5c1.2-0.6,2.6-0.9,4-0.9c1.5,0,2.8,0.3,4,1c1.2,0.6,2.3,1.6,3.2,2.8
			c0.9,1.2,1.6,2.7,2.1,4.5c0.5,1.8,0.8,3.7,0.8,5.9c0,2-0.3,3.9-0.8,5.5c-0.5,1.6-1.2,3-2.1,4.1C81.9,28.8,81.8,28.9,81.8,29z"/>
	</g>
</g>
</svg>
